<?xml version="1.0" encoding="UTF-8" standalone="no"?>
<!--On October 31, 2003, Christophe Augier dedicated to the public domain the work "SVG graphic of Brittany flag."-->

<svg
   xmlns:dc="http://purl.org/dc/elements/1.1/"
   xmlns:cc="http://creativecommons.org/ns#"
   xmlns:rdf="http://www.w3.org/1999/02/22-rdf-syntax-ns#"
   xmlns:svg="http://www.w3.org/2000/svg"
   xmlns="http://www.w3.org/2000/svg"
   xmlns:sodipodi="http://sodipodi.sourceforge.net/DTD/sodipodi-0.dtd"
   xmlns:inkscape="http://www.inkscape.org/namespaces/inkscape"
   width="900"
   height="600"
   viewBox="0 0 540 360"
   id="svg2"
   version="1.1"
   inkscape:version="0.48.2 r9819"
   sodipodi:docname="Gwenn_ha_du_(14_mouchetures).svg">
  <defs
     id="defs63" />
  <sodipodi:namedview
     pagecolor="#ffffff"
     bordercolor="#666666"
     borderopacity="1"
     objecttolerance="10"
     gridtolerance="10"
     guidetolerance="10"
     inkscape:pageopacity="0"
     inkscape:pageshadow="2"
     inkscape:window-width="1366"
     inkscape:window-height="706"
     id="namedview61"
     showgrid="false"
     inkscape:zoom="0.34111111"
     inkscape:cx="1019.1099"
     inkscape:cy="323.35209"
     inkscape:window-x="-8"
     inkscape:window-y="-8"
     inkscape:window-maximized="1"
     inkscape:current-layer="svg2" />
  <metadata
     id="metadata4">
    <rdf:RDF>
      <cc:Work
         rdf:about="">
        <dc:subject>
          <rdf:Bag>
            <rdf:li>europe</rdf:li>
            <rdf:li>france</rdf:li>
            <rdf:li>flag</rdf:li>
            <rdf:li>sign</rdf:li>
          </rdf:Bag>
        </dc:subject>
        <dc:publisher>
          <cc:Agent
             rdf:about="http://www.openclipart.org">
            <dc:title>Christophe Augier</dc:title>
          </cc:Agent>
        </dc:publisher>
        <dc:creator>
          <cc:Agent>
            <dc:title>Christophe Augier</dc:title>
          </cc:Agent>
        </dc:creator>
        <dc:rights>
          <cc:Agent>
            <dc:title>Christophe Augier</dc:title>
          </cc:Agent>
        </dc:rights>
        <dc:format>image/svg+xml</dc:format>
        <dc:type
           rdf:resource="http://purl.org/dc/dcmitype/StillImage" />
        <cc:license
           rdf:resource="http://web.resource.org/cc/PublicDomain" />
        <dc:language>en</dc:language>
        <dc:title></dc:title>
      </cc:Work>
      <cc:License
         rdf:about="http://web.resource.org/cc/PublicDomain">
        <cc:permits
           rdf:resource="http://web.resource.org/cc/Reproduction" />
        <cc:permits
           rdf:resource="http://web.resource.org/cc/Distribution" />
        <cc:permits
           rdf:resource="http://web.resource.org/cc/DerivativeWorks" />
      </cc:License>
    </rdf:RDF>
  </metadata>
  <rect
     width="540"
     height="360"
     id="rect6" />
  <rect
     style="fill:#ffffff"
     x="0"
     id="rect10"
     height="45"
     width="540"
     y="36" />
  <rect
     style="fill:#ffffff"
     x="0"
     id="rect12"
     height="45"
     width="540"
     y="117" />
  <rect
     style="fill:#ffffff"
     x="0"
     id="rect14"
     height="45"
     width="540"
     y="198" />
  <rect
     style="fill:#ffffff"
     x="0"
     id="rect16"
     height="45"
     width="540"
     y="279" />
  <rect
     style="fill:#ffffff"
     y="0"
     x="0"
     id="rect18"
     height="162"
     width="244.8" />
  <g
     id="use51"
     transform="matrix(1.0402432,0,0,1.3586849,-4.9432123,2.5739611)">
    <path
       inkscape:connector-curvature="0"
       id="path3082"
       d="m 24.036,18.049 5.089,-2.974 8.481,2.974 -8.481,2.975 z" />
    <path
       inkscape:connector-curvature="0"
       id="path3084"
       d="m 24.036,18.05 -5.089,2.974 -8.481,-2.974 8.481,-2.975 z" />
    <path
       inkscape:connector-curvature="0"
       id="path3086"
       d="m 24.036,18.049 -3.392,-4.461 3.392,-7.435 3.392,7.435 z" />
    <path
       inkscape:connector-curvature="0"
       id="path3088"
       d="M 24.036,52.253 20.644,46.304 8.77,50.766 24.036,18.049 39.303,50.766 27.428,46.304 z" />
  </g>
  <g
     id="use53"
     transform="matrix(1.0402432,0,0,1.3586849,44.482378,2.5739611)">
    <path
       inkscape:connector-curvature="0"
       id="path3092"
       d="m 24.036,18.049 5.089,-2.974 8.481,2.974 -8.481,2.975 z" />
    <path
       inkscape:connector-curvature="0"
       id="path3094"
       d="m 24.036,18.05 -5.089,2.974 -8.481,-2.974 8.481,-2.975 z" />
    <path
       inkscape:connector-curvature="0"
       id="path3096"
       d="m 24.036,18.049 -3.392,-4.461 3.392,-7.435 3.392,7.435 z" />
    <path
       inkscape:connector-curvature="0"
       id="path3098"
       d="M 24.036,52.253 20.644,46.304 8.77,50.766 24.036,18.049 39.303,50.766 27.428,46.304 z" />
  </g>
  <g
     id="use55"
     transform="matrix(1.0402432,0,0,1.3586849,93.906784,2.5739611)">
    <path
       inkscape:connector-curvature="0"
       id="path3102"
       d="m 24.036,18.049 5.089,-2.974 8.481,2.974 -8.481,2.975 z" />
    <path
       inkscape:connector-curvature="0"
       id="path3104"
       d="m 24.036,18.05 -5.089,2.974 -8.481,-2.974 8.481,-2.975 z" />
    <path
       inkscape:connector-curvature="0"
       id="path3106"
       d="m 24.036,18.049 -3.392,-4.461 3.392,-7.435 3.392,7.435 z" />
    <path
       inkscape:connector-curvature="0"
       id="path3108"
       d="M 24.036,52.253 20.644,46.304 8.77,50.766 24.036,18.049 39.303,50.766 27.428,46.304 z" />
  </g>
  <g
     id="use57"
     transform="matrix(1.0402432,0,0,1.3586849,143.33118,2.5739611)">
    <path
       inkscape:connector-curvature="0"
       id="path3112"
       d="m 24.036,18.049 5.089,-2.974 8.481,2.974 -8.481,2.975 z" />
    <path
       inkscape:connector-curvature="0"
       id="path3114"
       d="m 24.036,18.05 -5.089,2.974 -8.481,-2.974 8.481,-2.975 z" />
    <path
       inkscape:connector-curvature="0"
       id="path3116"
       d="m 24.036,18.049 -3.392,-4.461 3.392,-7.435 3.392,7.435 z" />
    <path
       inkscape:connector-curvature="0"
       id="path3118"
       d="M 24.036,52.253 20.644,46.304 8.77,50.766 24.036,18.049 39.303,50.766 27.428,46.304 z" />
  </g>
  <g
     id="use59"
     transform="matrix(1.0402432,0,0,1.3586849,192.75561,2.5739611)">
    <path
       inkscape:connector-curvature="0"
       id="path3122"
       d="m 24.036,18.049 5.089,-2.974 8.481,2.974 -8.481,2.975 z" />
    <path
       inkscape:connector-curvature="0"
       id="path3124"
       d="m 24.036,18.05 -5.089,2.974 -8.481,-2.974 8.481,-2.975 z" />
    <path
       inkscape:connector-curvature="0"
       id="path3126"
       d="m 24.036,18.049 -3.392,-4.461 3.392,-7.435 3.392,7.435 z" />
    <path
       inkscape:connector-curvature="0"
       id="path3128"
       d="M 24.036,52.253 20.644,46.304 8.77,50.766 24.036,18.049 39.303,50.766 27.428,46.304 z" />
  </g>
  <g
     id="use53-4"
     transform="matrix(1.0402432,0,0,1.3586849,19.574519,79.543767)">
    <path
       inkscape:connector-curvature="0"
       id="path3092-8"
       d="m 24.036,18.049 5.089,-2.974 8.481,2.974 -8.481,2.975 z" />
    <path
       inkscape:connector-curvature="0"
       id="path3094-8"
       d="m 24.036,18.05 -5.089,2.974 -8.481,-2.974 8.481,-2.975 z" />
    <path
       inkscape:connector-curvature="0"
       id="path3096-2"
       d="m 24.036,18.049 -3.392,-4.461 3.392,-7.435 3.392,7.435 z" />
    <path
       inkscape:connector-curvature="0"
       id="path3098-4"
       d="M 24.036,52.253 20.644,46.304 8.77,50.766 24.036,18.049 39.303,50.766 27.428,46.304 z" />
  </g>
  <g
     id="use55-5"
     transform="matrix(1.0402432,0,0,1.3586849,68.998926,79.543767)">
    <path
       inkscape:connector-curvature="0"
       id="path3102-5"
       d="m 24.036,18.049 5.089,-2.974 8.481,2.974 -8.481,2.975 z" />
    <path
       inkscape:connector-curvature="0"
       id="path3104-1"
       d="m 24.036,18.05 -5.089,2.974 -8.481,-2.974 8.481,-2.975 z" />
    <path
       inkscape:connector-curvature="0"
       id="path3106-7"
       d="m 24.036,18.049 -3.392,-4.461 3.392,-7.435 3.392,7.435 z" />
    <path
       inkscape:connector-curvature="0"
       id="path3108-1"
       d="M 24.036,52.253 20.644,46.304 8.77,50.766 24.036,18.049 39.303,50.766 27.428,46.304 z" />
  </g>
  <g
     id="use57-1"
     transform="matrix(1.0402432,0,0,1.3586849,118.42332,79.543767)">
    <path
       inkscape:connector-curvature="0"
       id="path3112-5"
       d="m 24.036,18.049 5.089,-2.974 8.481,2.974 -8.481,2.975 z" />
    <path
       inkscape:connector-curvature="0"
       id="path3114-2"
       d="m 24.036,18.05 -5.089,2.974 -8.481,-2.974 8.481,-2.975 z" />
    <path
       inkscape:connector-curvature="0"
       id="path3116-7"
       d="m 24.036,18.049 -3.392,-4.461 3.392,-7.435 3.392,7.435 z" />
    <path
       inkscape:connector-curvature="0"
       id="path3118-6"
       d="M 24.036,52.253 20.644,46.304 8.77,50.766 24.036,18.049 39.303,50.766 27.428,46.304 z" />
  </g>
  <g
     id="use59-1"
     transform="matrix(1.0402432,0,0,1.3586849,167.84775,79.543767)">
    <path
       inkscape:connector-curvature="0"
       id="path3122-4"
       d="m 24.036,18.049 5.089,-2.974 8.481,2.974 -8.481,2.975 z" />
    <path
       inkscape:connector-curvature="0"
       id="path3124-2"
       d="m 24.036,18.05 -5.089,2.974 -8.481,-2.974 8.481,-2.975 z" />
    <path
       inkscape:connector-curvature="0"
       id="path3126-3"
       d="m 24.036,18.049 -3.392,-4.461 3.392,-7.435 3.392,7.435 z" />
    <path
       inkscape:connector-curvature="0"
       id="path3128-2"
       d="M 24.036,52.253 20.644,46.304 8.77,50.766 24.036,18.049 39.303,50.766 27.428,46.304 z" />
  </g>
</svg>
